<?xml version="1.0" encoding="UTF-8"?>
<svg width="18px" height="18px" viewBox="0 0 18 18" version="1.1" xmlns="http://www.w3.org/2000/svg">
    <g stroke="none" stroke-width="1" fill="none" fill-rule="evenodd">
        <path d="M15.4395,13.6195 C15.0795,14.4795 14.6595,15.2795 14.0895,16.0195 C13.2995,17.0595 12.6295,17.7595 12.0895,18.0995 C11.2495,18.6795 10.3495,18.9795 9.38949,18.9995 C8.69949,18.9995 7.86949,18.8395 6.89949,18.4995 C5.92949,18.1595 5.02949,17.9995 4.20949,17.9995 C3.34949,17.9995 2.42949,18.1595 1.44949,18.4995 C0.469487,18.8395 -0.290513,19.0095 -0.830513,19.0195 C-1.65051,19.0395 -2.43051,18.7295 -3.19051,18.0995 C-3.77051,17.7195 -4.46051,17.0095 -5.27051,15.9595 C-6.13051,14.8395 -6.84051,13.5395 -7.40051,12.0595 C-8.00051,10.4595 -8.30051,8.91953 -8.30051,7.41953 C-8.30051,5.71953 -7.91051,4.24953 -7.13051,3.00953 C-6.51051,2.00953 -5.71051,1.22953 -4.73051,0.669534 C-3.75051,0.109534 -2.69051,-0.170466 -1.55051,-0.190466 C-0.820513,-0.190466 0.139487,-0.0104664 1.32949,0.349534 C2.51949,0.709534 3.24949,0.889534 3.51949,0.889534 C3.71949,0.889534 4.54949,0.679534 5.99949,0.249534 C7.36949,-0.150466 8.51949,-0.190466 9.44949,0.129534 C11.5495,0.719534 13.0895,1.87953 14.0495,3.61953 C12.1695,4.77953 11.2395,6.37953 11.2595,8.40953 C11.2795,10.0095 11.8795,11.3295 13.0595,12.3495 C13.5895,12.8395 14.1795,13.2095 14.8395,13.4595 C14.7095,13.5195 14.5795,13.5695 14.4395,13.6195 L15.4395,13.6195 Z M9.66949,-3.81047 C9.66949,-2.51047 9.18949,-1.28047 8.22949,-0.130466 C7.07949,1.21953 5.68949,1.98953 4.14949,1.87953 C4.12949,1.72953 4.11949,1.57953 4.11949,1.41953 C4.11949,0.159534 4.66949,-1.15047 5.64949,-2.27047 C6.13949,-2.84047 6.76949,-3.31047 7.53949,-3.69047 C8.30949,-4.06047 9.03949,-4.26047 9.72949,-4.29047 C9.75949,-4.14047 9.66949,-3.97047 9.66949,-3.81047 L9.66949,-3.81047 Z" fill="#000000" transform="translate(8.349744, 9.400000)"/>
    </g>
</svg>
